<svg width="24" height="25" viewBox="0 0 24 25" fill="none" xmlns="http://www.w3.org/2000/svg">
<rect width="24" height="25" fill="#1E1E1E"/>
<g id="Courses Page - Desktop">
<rect width="1920" height="2740" transform="translate(-1148 -35)" fill="#F7F7F8"/>
<g id="Header">
<g id="Top Banner">
<rect x="-1118" y="-15" width="1860" height="55" rx="8" fill="#FF9500"/>
<g id="Icon">
<path id="Vector (Stroke)" fill-rule="evenodd" clip-rule="evenodd" d="M3.60001 12.4999C3.60001 12.0029 4.00295 11.5999 4.50001 11.5999L17.2655 11.5999L12.2762 6.8487C11.9179 6.50418 11.9067 5.93445 12.2513 5.57615C12.5958 5.21786 13.1655 5.20669 13.5238 5.5512L20.1238 11.8512C20.3003 12.0209 20.4 12.2551 20.4 12.4999C20.4 12.7448 20.3003 12.979 20.1238 13.1487L13.5238 19.4487C13.1655 19.7932 12.5958 19.782 12.2513 19.4237C11.9067 19.0655 11.9179 18.4957 12.2762 18.1512L17.2655 13.3999L4.50001 13.3999C4.00295 13.3999 3.60001 12.997 3.60001 12.4999Z" fill="white"/>
</g>
</g>
</g>
</g>
</svg>
